<svg width="200" height="200" viewBox="0 0 200 200" xmlns="http://www.w3.org/2000/svg">
  <!-- Tomato body -->
  <circle cx="100" cy="120" r="80" fill="red" />

  <!-- Tomato top part (green stem and leaves) -->
  <path d="M100 20 C90 10, 70 30, 90 40
           C80 30, 50 40, 60 60
           C50 50, 30 60, 40 80
           C30 70, 20 90, 40 100
           C30 90, 20 110, 50 110
           C30 100, 50 150, 100 120
           C150 150, 170 100, 150 110
           C180 110, 170 90, 160 100
           C180 90, 170 70, 160 80
           C170 60, 150 50, 140 60
           C150 40, 120 30, 110 40
           C130 30, 110 10, 100 20" 
        fill="green" />

  <!-- Highlight -->
  <ellipse cx="80" cy="100" rx="15" ry="25" fill="rgba(255, 255, 255, 0.4)" />
</svg>
